<svg xmlns="http://www.w3.org/2000/svg" viewBox="0 0 135.77 135.77"><defs><style>.cls-1{fill:#f1f3ee;}.cls-2{fill:#f7d50b;}.cls-3{fill:#313332;}</style></defs><title>Asset 5</title><g id="Layer_2" data-name="Layer 2"><g id="Layer_1-2" data-name="Layer 1"><circle class="cls-1" cx="67.89" cy="67.89" r="67.88"/><path class="cls-2" d="M91.69,87.07a14.07,14.07,0,0,0,4-7.83,34.42,34.42,0,0,1-10,11.41A14.06,14.06,0,0,0,91.69,87.07Z"/><path class="cls-2" d="M67.91,80.33V73.78A14.19,14.19,0,0,0,67.91,80.33Z"/><path class="cls-2" d="M51.24,84.69c1.73.39,3.52.71,5.37,1a26.26,26.26,0,0,1-1.18-5,52.84,52.84,0,0,1-6.21-1.44A56.16,56.16,0,0,1,47,65.43H57.85a25.8,25.8,0,0,1,2.93-4.69H47a55.89,55.89,0,0,1,2.26-14,56.08,56.08,0,0,1,14-2.26V58a26.79,26.79,0,0,1,4.7-3.63V44.48a56.22,56.22,0,0,1,13.81,2.25c.37,1.23.69,2.52,1,3.83a26.91,26.91,0,0,1,5,.65c-.15-.83-.31-1.66-.5-2.46,3.6,1.62,13,7.46,17.32,14.79,0-.19,0-.37,0-.56A39,39,0,0,0,65.56,24h-.24A39,39,0,0,0,26.67,61a14,14,0,0,0,0,3.94,39,39,0,0,0,38.65,37h.24a38.72,38.72,0,0,0,5.76-.43C68.34,100.23,55.77,96.46,51.24,84.69ZM96.81,49a38.15,38.15,0,0,0-11.31-6.08,38.25,38.25,0,0,0-6-11.23A34.39,34.39,0,0,1,96.81,49Zm-28.9-20c4.67,1.19,8.86,5.72,11.79,12.22a63,63,0,0,0-11.79-1.51Zm-4.7,0V39.77a63.42,63.42,0,0,0-12,1.52C54.21,34.71,58.46,30.13,63.21,29ZM51.35,31.84a38.43,38.43,0,0,0-5.92,11.1,38.31,38.31,0,0,0-11,5.86A34.42,34.42,0,0,1,51.35,31.84ZM43.76,48.76a62.78,62.78,0,0,0-1.51,12H31.5C32.62,56,37.19,51.73,43.76,48.76ZM42.26,65.43a62.75,62.75,0,0,0,1.51,11.79c-6.5-2.94-11-7.12-12.22-11.79ZM34.41,77.16a38.42,38.42,0,0,0,11,5.86,38.47,38.47,0,0,0,5.92,11.1A34.4,34.4,0,0,1,34.41,77.16Z"/><path class="cls-3" d="M112.52,99.84a5.7,5.7,0,0,1,0,8.06h0a5.7,5.7,0,0,1-8.06,0L88.34,91.78c-2.23-2.23,5.84-10.29,8.06-8.06Z"/><path class="cls-3" d="M81.67,97.88a20.83,20.83,0,1,1,14.73-6.1A20.71,20.71,0,0,1,81.67,97.88Zm0-32a11.12,11.12,0,1,0,7.87,3.26A11,11,0,0,0,81.67,65.93Z"/></g></g></svg>