<svg xmlns="http://www.w3.org/2000/svg" viewBox="0 0 135.77 135.77"><defs><style>.cls-1{isolation:isolate;}.cls-2{fill:#f1f3ee;}.cls-3{fill:#313332;}.cls-4{fill:#f7d50b;}.cls-5{fill:#e4e3e5;mix-blend-mode:multiply;}</style></defs><title>Asset 3</title><g class="cls-1"><g id="Layer_2" data-name="Layer 2"><g id="Layer_1-2" data-name="Layer 1"><circle class="cls-2" cx="67.89" cy="67.89" r="67.89"/><g id="Settings"><path class="cls-3" d="M62.64,80.53A16.76,16.76,0,1,1,79.4,63.77c0,.14,0,.28,0,.42H100.9a41.81,41.81,0,0,0-.22-4.77,2.5,2.5,0,0,0-2.47-1.89,8.47,8.47,0,0,1-5.79-14.74,2.13,2.13,0,0,0,.23-2.89,38.2,38.2,0,0,0-6.07-6.14,2.14,2.14,0,0,0-2.91.24,8.85,8.85,0,0,1-9.57,2.15,8.51,8.51,0,0,1-5.18-8.33A2.13,2.13,0,0,0,67,25.6a38.15,38.15,0,0,0-8.63,0,2.13,2.13,0,0,0-1.9,2.19A8.52,8.52,0,0,1,51.27,36a8.85,8.85,0,0,1-9.49-2.16,2.15,2.15,0,0,0-2.9-.24,37.83,37.83,0,0,0-6.21,6.13,2.13,2.13,0,0,0,.23,2.91A8.49,8.49,0,0,1,35,52.16a8.85,8.85,0,0,1-8.34,5.18,2.09,2.09,0,0,0-2.22,1.89,38.84,38.84,0,0,0,0,8.72A2.54,2.54,0,0,0,27,69.83a8.4,8.4,0,0,1,7.89,5.26,8.56,8.56,0,0,1-2.14,9.49,2.11,2.11,0,0,0-.24,2.88,37.82,37.82,0,0,0,6.06,6.14,2.14,2.14,0,0,0,2.92-.23A8.82,8.82,0,0,1,51,91.22a8.5,8.5,0,0,1,5.19,8.32,2.13,2.13,0,0,0,1.89,2.24,37.39,37.39,0,0,0,4.41.26h.17V80.53Z"/></g><path class="cls-4" d="M75.51,67.64c1.57-4.3-1.25-16.46-12.43-16.15-.52,0-1.53.3-.51,1.18C65,54.74,66.2,56,66.85,56.61c2,1.94.81,7-1.33,9.35s-7.45,3-9.28,1.64a30.42,30.42,0,0,1-3.66-3.51c-1.36-1.44-1.4,0-1.35.56.93,11,12.65,13.18,16.6,10.72,0,0,14.88,13.88,24,22.49,6.45,6.1,14-2.09,7.88-7.55C92.19,83.67,75.51,67.64,75.51,67.64Z"/><path class="cls-5" d="M93.45,91.76a2,2,0,0,1-2.82.07L71.11,73.7l2.74-2.89L93.37,88.94a2,2,0,0,1,.08,2.81Z"/></g></g></g></svg>